<?xml version="1.0" standalone="no"?>
<!DOCTYPE svg PUBLIC "-//W3C//DTD SVG 20010904//EN"
 "http://www.w3.org/TR/2001/REC-SVG-20010904/DTD/svg10.dtd">
<svg version="1.0" xmlns="http://www.w3.org/2000/svg"
 width="260.000000pt" height="260.000000pt" viewBox="0 0 260.000000 260.000000"
 preserveAspectRatio="xMidYMid meet">
<metadata>
Created by potrace 1.11, written by Peter Selinger 2001-2013
</metadata>
<g transform="translate(0.000000,260.000000) scale(0.100000,-0.100000)"
fill="#000000" stroke="none">
<path d="M121 2584 c-43 -18 -78 -56 -102 -109 -16 -35 -19 -69 -19 -296 l0
-255 1228 1 c1145 0 1229 2 1259 18 44 23 72 54 94 102 16 35 18 70 19 297 l1
258 -1223 0 c-1055 -1 -1228 -3 -1257 -16z"/>
<path d="M135 1674 c-57 -19 -85 -46 -115 -109 -18 -38 -19 -73 -20 -803 l0
-763 282 3 283 3 42 29 c28 19 51 46 68 80 l25 52 1 714 c0 393 0 736 0 761
l-1 46 -265 0 c-180 -1 -277 -5 -300 -13z"/>
<path d="M1104 1680 c-47 -10 -86 -37 -119 -83 l-30 -42 -3 -778 -2 -777 350
0 350 0 0 843 0 843 -257 0 c-142 0 -272 -3 -289 -6z"/>
<path d="M2004 1676 c-40 -18 -77 -53 -100 -96 -18 -33 -19 -71 -22 -807 l-2
-773 280 0 c301 0 319 3 373 52 15 14 36 45 47 69 19 43 20 66 20 807 l0 762
-282 0 c-213 -1 -291 -4 -314 -14z"/>
</g>
</svg>
